<svg xmlns="http://www.w3.org/2000/svg" viewBox="0 0 64 64" fill="none">
  <rect width="64" height="64" rx="18" fill="#0B1020"/>
  <path d="M14 17H50V23H14V17Z" fill="#D0FF36"/>
  <path d="M14 29H36V35H14V29Z" fill="#FF9A1F"/>
  <path d="M14 41H28V47H14V41Z" fill="#FF6B3D"/>
  <path d="M38 27C42.4183 27 46 30.5817 46 35C46 39.4183 42.4183 43 38 43C33.5817 43 30 39.4183 30 35C30 30.5817 33.5817 27 38 27ZM38 31C35.7909 31 34 32.7909 34 35C34 37.2091 35.7909 39 38 39C40.2091 39 42 37.2091 42 35C42 32.7909 40.2091 31 38 31Z" fill="#FFF7EF"/>
</svg>

